<svg height="806.667" viewBox="0 0 605 605" width="806.667" xmlns="http://www.w3.org/2000/svg"><path fill="#007BFF" d="m280.7 10.6c-.1.1-4.7.5-10.2.8-57.5 3.9-115 26.9-161 64.5-9.3 7.7-8.6 7-16.1 14.2-8.3 8-17.1 17.4-22.9 24.4-2.8 3.3-5.3 6.2-5.6 6.5s-3.8 5-7.7 10.5c-13.7 19.2-25.5 40.9-34 62.5-4.3 11-10.7 30.7-11.6 35.7-.3 1.3-.7 3.1-1 4.1-.8 2.5-4.2 22-6.1 34.7-1.4 9.1-1.3 49.2.1 61.5 5.9 51.9 22.9 96.8 52.4 138 10.7 15 16.6 21.8 32.4 37.5 13.3 13.2 21 19.8 34.6 29.6 48.2 34.9 106.9 54.1 166 54.3 11 0 34.8-1.2 35.9-1.8.3-.2 3.4-.7 6.8-1 3.5-.4 6.8-.8 7.5-1.1.7-.2 3-.7 5.1-1 6-.8 27.5-6.2 36.2-9.1 20-6.5 46.4-18.6 61-27.8 34.6-22 60-45.2 82.8-75.7 5.6-7.5 5.8-7.6 10.5-7.8 13.2-.4 25.6-4.4 36.2-11.5 28.5-19.1 38.7-55.5 24.3-86.6-3.1-6.7-10-16.6-14.3-20.2-3.5-3.1-3.5-2.7-1-23.8.8-7.4.6-46.1-.4-51-.3-1.4-.7-4.9-1-7.9-.5-4.7-1.8-12.8-3-18.6-3-13.9-4-18.2-6.2-25.5-10.2-34.2-27.2-67.6-48.6-95.5-32.4-42.1-78.7-76.3-128.1-94.6-8.5-3.2-25.4-8.6-29.1-9.3-1.2-.3-5-1.1-8.6-2-3.6-.8-8.3-1.8-10.5-2.1-2.2-.4-4.7-.8-5.5-1-.8-.3-3.5-.7-6-1s-6.1-.7-8-1c-10.1-1.3-44.3-2.8-45.3-1.9zm34.8 49.8c9.3 1 28.6 4.3 35.5 6.2 3 .8 6.4 1.7 7.4 1.9 5.4 1.2 19.1 6.2 28.6 10.3 56.1 24.2 102.1 69.9 126 125 5.1 12 11.2 29.2 10.2 29.2-4.7 0-63.8-17.3-68-19.9-1-.6-1-1.4-.1-3.7 1.9-4.9 1.6-23.9-.5-31.9-6.2-23.5-23.1-41.6-46.3-49.3-6.7-2.2-9.6-2.6-20.3-2.6-13.3 0-18.7 1-29.1 5.9-8.6 4-12.3 6.5-19.4 13.5l-5.1 4.9-10.4-8c-21.7-16.4-37.3-30-55.6-48.3-17.6-17.7-26.5-27.6-25.9-28.7.3-.4 2.4-1 4.8-1.4 2.3-.4 5.6-.9 7.2-1.2 5-.8 7.7-1.1 16-1.8 4.4-.4 8.1-.8 8.3-.9.5-.5 30.1.1 36.7.8zm-95.9 16.3c23.8 29.3 60.2 63.2 95 88.7l8.1 5.9-1.3 3.6c-1.8 5.4-2.5 10.7-2.5 20.1.1 36.3 28.8 66 65.6 67.7 21 1 38.2-6 53.3-21.5 5.6-5.8 6.5-6.4 8.5-5.4 3.3 1.5 21.7 7.7 33.7 11.2 5.8 1.7 11.9 3.5 13.5 4 3.9 1.2 22.3 5.5 30.2 7.1l6.2 1.3.6 4.6c.3 2.5.9 5.9 1.1 7.5.7 4.4 1.3 43.1.7 49.1l-.5 5.2-5.6.7c-15 1.9-29.6 8.9-40.4 19.6l-6.7 6.6-9.8-3.4c-16.2-5.6-45.6-14-55.8-15.9-1.1-.2-3.8-.8-6-1.3-6.4-1.7-27.3-5.5-36-6.7-2.2-.2-6.9-.9-10.5-1.4s-10.1-1.2-14.5-1.6c-4.4-.3-8.4-.7-9-.8-.5 0-6-10.2-12.2-22.6-6.1-12.4-12.8-25.4-14.8-29-5.8-10.3-17.8-29.5-18.7-29.8-.4-.2-.8-.8-.8-1.4 0-2.4-29.8-42.2-42.9-57.2-21.7-24.8-50.7-52.1-77.4-72.9-5.6-4.4-10.2-8.4-10.2-8.9 0-2.4 29.4-18.2 44-23.7 3.3-1.3 6.9-2.7 8-3.1 3-1.3 3-1.3 7.1 3.7zm-67.1 48.7c26.9 20.5 51.7 43.7 76.6 71.6 11.6 13.1 35.2 44.5 44.6 59.5 13.8 21.9 34.3 59.5 34.3 62.7 0 .3-6.4.5-14.2.5-20.6 0-47.4 1.4-59.8 3.2-7.4 1.1-6.2 1.8-14.4-9.4-9.7-13.3-25.6-22.9-43.6-26.2-6.1-1.1-18.7-.6-26.3 1.1-28.7 6.4-51.6 33.1-53.2 62l-.3 5.9-8.9 3.7c-4.8 2.1-10.6 4.5-12.8 5.5s-4.2 1.9-4.5 2c-1.4.5-6.4 2.6-7 3-.7.4-4.7-13-5.6-18.5-.2-1.4-.9-4.5-1.4-7-1.4-6.3-1.9-10.1-3.5-25.5-.6-5.3-.7-34.3-.1-37.5.2-1.4.7-5.9 1.1-10 3.3-37.2 21-81.8 45.6-115 8.4-11.4 9.8-12.9 25.1-28.3l13.8-13.8 3.3 2.2c1.7 1.3 6.8 5 11.2 8.3zm246.9 25.7c21.1 5.6 35.2 27.2 32.4 49.4-.9 7.1-6.2 18.4-11.2 23.6-17.7 18.9-46.3 19.4-64.5 1.2-13.3-13.4-16.7-33-8.7-49.9 9.4-19.8 31-29.9 52-24.3zm-221 161.9c15 5.2 25.6 16.1 29.9 30.7 2.1 7 1.5 20.3-1.2 27.5-3.5 9.2-10.5 17.4-18.9 22.5-20.9 12.5-47.1 6.4-60.3-14-15.8-24.3-4.1-57.2 23.6-66.5 7.6-2.6 19.8-2.7 26.9-.2zm142.3 36c3.6 7.3 14.9 42.3 19.2 59.6 3.7 14.6 8.1 35.6 9.6 45.9 1.6 11.3 2.5 17.8 3 22.6.4 3 .8 6.7 1 8.4.9 5.7 1.9 25 1.9 36l.1 10.9-7.5 1.8c-4.1 1-10.4 2.3-14 2.8-3.6.6-7.6 1.3-9 1.5-10.5 1.9-40.2 2.5-54.5 1.2-10-1-26.2-3.4-27.4-4.1-.3-.2-2.2-.7-4.2-1-5.2-.8-25.5-7.1-34.5-10.7-55.2-21.9-101.1-64-127.4-116.8-6.1-12.4-6.5-13.7-4.3-14.4 1-.3 7.6-3 14.6-6.1 11.8-5.2 14.7-5.9 14.7-3.6 0 2.4 8.6 15.2 13.6 20.3 8.6 8.7 16.7 13.9 28.2 17.8 7.4 2.5 13.1 3.3 23.2 3.2 36.7-.3 66.9-31.2 67.1-68.6l.1-8.7 2.6-.1c1.5-.1 3.8-.2 5.2-.4s7.2-.6 13-1 10.6-.8 10.8-1c.1-.1 12-.2 26.5-.1l26.2.1zm39.3-.5c21.9 2.8 50.2 8.6 70.9 14.6 14.1 4 34.5 10.4 36 11.3.4.3.2 3.3-.5 6.8-1.6 7.6-1.7 20.6-.3 26.8.6 2.5 1.2 4.9 1.3 5.5 1.6 7.8 8.7 20.7 14.9 27.2l3 3.2-4.4 5.7c-22.2 28.8-56.3 55.2-91 70.4-10.3 4.6-9.6 4.4-9.6 2.7-.1-4.3-1.5-28.8-1.8-31.7-.2-1.9-.6-6.7-1-10.5-.3-3.9-1.2-11.3-2-16.5s-1.7-11.8-2.1-14.5c-.3-2.8-.8-5.2-.9-5.5-.2-.3-.6-2.6-1-5-2.9-20-16-68.1-24.4-89.3l-1.1-2.8 4.7.5c2.7.3 6.8.8 9.3 1.1zm188.3 4.6c28 9.4 38.9 42.5 22.2 67.6-4.2 6.3-13.3 13.3-21.3 16.3-3.4 1.3-8.7 2.3-13.2 2.5-13.3.5-24-3.6-33.3-12.8-13.5-13.4-17.1-32.7-9.2-50.2 9.2-20.5 33.1-30.7 54.8-23.4z"/></svg>