<?xml version="1.0" standalone="no"?>
<!DOCTYPE svg PUBLIC "-//W3C//DTD SVG 20010904//EN"
 "http://www.w3.org/TR/2001/REC-SVG-20010904/DTD/svg10.dtd">
<svg version="1.0" xmlns="http://www.w3.org/2000/svg"
 width="16.000000pt" height="16.000000pt" viewBox="0 0 16.000000 16.000000"
 preserveAspectRatio="xMidYMid meet">
<metadata>
Created by potrace 1.11, written by Peter Selinger 2001-2013
</metadata>
<g transform="translate(0.000000,16.000000) scale(0.002286,-0.002286)"
fill="#000000" stroke="none">
<path d="M3396 6868 c-51 -11 -86 -31 -122 -70 -25 -27 -130 -182 -204 -303
-35 -56 -109 -171 -479 -746 -219 -338 -326 -509 -339 -539 -19 -45 -18 -126
1 -172 9 -20 34 -64 56 -98 23 -34 41 -62 41 -63 0 -1 -210 -2 -467 -2 -258 1
-485 -2 -506 -6 -72 -12 -126 -57 -199 -164 -37 -55 -72 -107 -78 -115 -366
-537 -579 -860 -590 -894 -17 -52 -8 -134 19 -187 35 -66 100 -188 131 -244
15 -27 43 -79 62 -115 19 -36 66 -121 103 -190 37 -69 86 -159 108 -200 22
-41 56 -104 76 -140 20 -36 45 -81 54 -100 54 -107 136 -254 163 -292 18 -26
52 -55 85 -73 l54 -29 677 -1 c372 0 680 -4 684 -8 4 -4 121 -202 260 -440
139 -237 266 -448 283 -468 17 -21 52 -47 78 -60 l48 -23 714 -1 c491 0 728 3
758 11 55 14 104 49 143 102 16 23 30 44 30 47 0 3 46 90 101 193 56 103 117
216 137 252 36 69 80 149 129 240 17 30 51 94 76 142 26 47 56 103 67 123 11
20 55 102 96 182 87 166 99 222 64 301 -16 35 -307 474 -402 606 -31 43 -30
54 6 54 13 0 48 11 78 24 53 25 83 55 139 143 15 22 96 148 180 280 85 132
263 408 394 612 407 631 395 612 395 693 -1 55 -21 99 -111 240 -46 72 -91
142 -99 156 -8 13 -89 139 -180 279 -91 140 -176 273 -190 295 -14 22 -95 148
-180 280 -85 132 -160 247 -165 257 -28 50 -105 160 -121 174 -11 9 -39 27
-64 40 l-45 23 -957 1 c-526 0 -973 -3 -992 -7z m1896 -716 c79 -122 168 -262
199 -310 30 -48 146 -228 257 -400 111 -172 202 -315 202 -318 0 -2 -36 -60
-79 -127 -44 -67 -111 -171 -150 -232 -39 -60 -164 -254 -277 -430 -114 -176
-218 -340 -233 -364 -14 -24 -36 -56 -47 -70 l-22 -26 -748 2 c-412 1 -754 2
-761 2 -6 1 -74 85 -151 189 -123 166 -203 284 -382 567 -28 44 -109 170 -181
280 -71 110 -128 207 -126 215 4 14 67 113 456 718 63 97 163 254 223 347 60
94 115 172 123 175 8 3 361 5 784 5 l770 0 143 -223z m-2535 -1952 c74 -96
177 -240 230 -320 53 -80 109 -164 125 -187 15 -23 28 -46 28 -53 0 -12 -89
-184 -137 -265 -47 -79 -392 -635 -424 -683 -15 -24 -30 -49 -32 -55 -5 -16
-965 -17 -976 -2 -5 5 -59 105 -121 220 -113 210 -141 263 -197 365 -17 30
-52 96 -78 145 -27 50 -67 125 -91 167 l-42 77 157 233 c86 128 199 296 250
373 52 77 100 145 106 150 8 7 199 10 541 10 l528 0 133 -175z m1863 -830 l55
0 38 -54 c20 -30 37 -59 37 -64 0 -6 4 -12 8 -14 5 -1 89 -122 187 -268 98
-146 193 -286 211 -311 29 -40 32 -48 20 -65 -7 -10 -37 -64 -66 -119 -29 -55
-71 -134 -93 -175 -22 -41 -50 -93 -62 -115 -13 -22 -38 -69 -57 -105 -19 -36
-51 -94 -70 -130 -19 -36 -57 -105 -83 -155 -26 -49 -58 -108 -71 -130 l-23
-40 -528 0 -528 0 -207 355 c-115 195 -214 366 -222 380 -7 14 -24 44 -37 67
l-24 42 61 118 c34 65 112 217 174 338 62 121 142 270 179 332 l66 112 45 3
c35 2 683 1 990 -2z"/>
</g>
</svg>
